<svg width="21" height="24" viewBox="0 0 21 24" fill="none" xmlns="http://www.w3.org/2000/svg">
<g clip-path="url(#clip0_30_61)">
<path d="M19.7845 18.7033C19.4217 19.5418 18.9922 20.3136 18.4946 21.0232C17.8164 21.9906 17.2611 22.6602 16.8331 23.032C16.1697 23.6424 15.4588 23.955 14.6977 23.9728C14.1512 23.9728 13.4922 23.8172 12.7251 23.5017C11.9555 23.1876 11.2483 23.032 10.6016 23.032C9.92333 23.032 9.19593 23.1876 8.41788 23.5017C7.63864 23.8172 7.0109 23.9816 6.53095 23.9979C5.80102 24.029 5.07347 23.7076 4.34725 23.032C3.88374 22.6276 3.30398 21.9343 2.60945 20.9521C1.86427 19.9032 1.25163 18.687 0.771683 17.3004C0.257672 15.8026 0 14.3523 0 12.9482C0 11.3398 0.347413 9.95259 1.04328 8.7901C1.59016 7.85636 2.31771 7.11979 3.2283 6.57906C4.13889 6.03834 5.12279 5.76279 6.18235 5.74516C6.76211 5.74516 7.52239 5.92456 8.46719 6.27715C9.40932 6.63091 10.0143 6.81031 10.2795 6.81031C10.4778 6.81031 11.1498 6.60054 12.289 6.18233C13.3664 5.79449 14.2756 5.63391 15.0205 5.69716C17.0389 5.86012 18.5553 6.6561 19.5638 8.09013C17.7586 9.18432 16.8657 10.7169 16.8834 12.6829C16.8997 14.2142 17.4551 15.4886 18.5465 16.5004C19.0411 16.97 19.5934 17.333 20.208 17.5907C20.0747 17.9774 19.934 18.3477 19.7845 18.7033ZM15.1553 0.480137C15.1553 1.68041 14.7169 2.8011 13.8432 3.8384C12.7888 5.07155 11.5135 5.78412 10.1305 5.67168C10.1129 5.52769 10.1027 5.37614 10.1027 5.21688C10.1027 4.06462 10.6041 2.83147 11.4945 1.82321C11.9391 1.3127 12.5045 0.888228 13.1901 0.549615C13.8743 0.216055 14.5214 0.031589 15.1301 0C15.1479 0.160458 15.1553 0.320941 15.1553 0.480137Z" fill="#B3B3B3"/>
</g>
<defs>
<clipPath id="clip0_30_61">
<rect width="20.208" height="24" fill="white"/>
</clipPath>
</defs>
</svg>
