<svg width="10" height="10" viewBox="0 0 10 10" fill="none" xmlns="http://www.w3.org/2000/svg">
<path d="M7.58203 1.4157C6.79036 0.707367 5.7487 0.332367 4.66536 0.457367C2.9987 0.582367 1.6237 1.7907 1.33203 3.33237C1.1237 4.33237 1.33203 5.33237 1.95703 6.1657L4.08203 9.12403C4.2487 9.4157 4.6237 9.58237 4.9987 9.58237C5.3737 9.58237 5.7487 9.4157 5.95703 9.08237L8.08203 6.12403C8.54036 5.49903 8.7487 4.7907 8.7487 4.0407C8.7487 3.0407 8.33203 2.08237 7.58203 1.4157Z" fill="white"/>
<path d="M4.9987 5.45833C5.37442 5.45833 5.73476 5.30908 6.00043 5.0434C6.26611 4.77772 6.41536 4.41739 6.41536 4.04167C6.41536 3.66594 6.26611 3.30561 6.00043 3.03993C5.73476 2.77426 5.37442 2.625 4.9987 2.625C4.62297 2.625 4.26264 2.77426 3.99696 3.03993C3.73129 3.30561 3.58203 3.66594 3.58203 4.04167C3.58203 4.41739 3.73129 4.77772 3.99696 5.0434C4.26264 5.30908 4.62297 5.45833 4.9987 5.45833Z" fill="#404040"/>
</svg>
